<svg id="sunrise" xmlns="http://www.w3.org/2000/svg" width="49" height="22.75" viewBox="0 0 49 22.75">
  <path id="Path_24" data-name="Path 24" d="M47.251,53.791H45.5v-3.5H43.75V52.04H42V43.289H40.251V52.04H38.5v-3.5H36.75V46.791H35v5.25H33.25V43.289H31.5V45.04H29.751v7H28v-7H26.25V39.79H24.5v5.25H22.75v3.5H21V43.289H17.5V52.04H15.75v-3.5H14V50.29H12.25V52.04H10.5V43.289H8.749V52.04H7v-5.25H5.25v3.5H3.5v3.5H0V55.54H49V53.791Z" transform="translate(0 -32.789)" fill="#fff"/>
  <path id="Path_25" data-name="Path 25" d="M222.331,21.649h3.5V19.9h-7v1.749h3.5Z" transform="translate(-180.33 -16.399)" fill="#fff"/>
  <rect id="Rectangle_119" data-name="Rectangle 119" width="1.751" height="1.749" transform="translate(38.5 8.751)" fill="#fff"/>
  <rect id="Rectangle_120" data-name="Rectangle 120" width="1.751" height="1.751" transform="translate(36.75 7.001)" fill="#fff"/>
  <rect id="Rectangle_121" data-name="Rectangle 121" width="1.749" height="1.751" transform="translate(35.001 5.25)" fill="#fff"/>
  <rect id="Rectangle_122" data-name="Rectangle 122" width="1.751" height="1.749" transform="translate(33.25 3.501)" fill="#fff"/>
  <rect id="Rectangle_123" data-name="Rectangle 123" width="1.751" height="1.751" transform="translate(31.5 1.751)" fill="#fff"/>
  <path id="Path_26" data-name="Path 26" d="M112.919,1.751h8.749V0H109.42V1.751h3.5Z" transform="translate(-90.169)" fill="#fff"/>
  <rect id="Rectangle_124" data-name="Rectangle 124" width="1.751" height="1.751" transform="translate(17.5 1.751)" fill="#fff"/>
  <rect id="Rectangle_125" data-name="Rectangle 125" width="1.751" height="1.749" transform="translate(15.75 3.501)" fill="#fff"/>
  <rect id="Rectangle_126" data-name="Rectangle 126" width="1.749" height="1.751" transform="translate(14.001 5.25)" fill="#fff"/>
  <rect id="Rectangle_127" data-name="Rectangle 127" width="1.751" height="1.751" transform="translate(12.25 7.001)" fill="#fff"/>
  <rect id="Rectangle_128" data-name="Rectangle 128" width="1.751" height="1.749" transform="translate(10.5 8.751)" fill="#fff"/>
  <path id="Path_27" data-name="Path 27" d="M53.231,1.751h1.751V0H49.73V1.751h3.5Z" transform="translate(-40.981)" fill="#fff"/>
  <path id="Path_28" data-name="Path 28" d="M23.391,21.649h3.5V19.9h-7v1.749h3.5Z" transform="translate(-16.391 -16.399)" fill="#fff"/>
</svg>
