<?xml version="1.0" encoding="UTF-8"?>
<svg width="279px" height="170px" viewBox="0 0 279 170" version="1.1" xmlns="http://www.w3.org/2000/svg" xmlns:xlink="http://www.w3.org/1999/xlink">
    <!-- Generator: Sketch 56 (81588) - https://sketch.com -->
    <title>Sunrise</title>
    <desc>Created with Sketch.</desc>
    <g id="Sunrise" stroke="none" stroke-width="1" fill="none" fill-rule="evenodd">
        <g id="Group-16" transform="translate(0.000000, 20.000000)" fill="#FFFFFF">
            <polygon id="Fill-1" points="139.2597 39.7906 139.2597 49.7406 139.2597 59.6806 139.2597 69.6306 129.3107 69.6306 129.3107 79.5796 129.3107 89.5296 119.3597 89.5296 119.3597 79.5796 119.3597 69.6306 119.3597 59.6806 109.4197 59.6806 99.4707 59.6806 99.4707 69.6306 99.4707 79.5796 99.4707 89.5296 99.4707 99.4706 99.4707 109.4196 89.5207 109.4196 89.5207 99.4706 89.5207 89.5296 79.5797 89.5296 79.5797 99.4706 69.6297 99.4706 69.6297 109.4196 59.6787 109.4196 59.6787 99.4706 59.6787 89.5296 59.6787 79.5796 59.6787 69.6306 59.6787 59.6806 49.7307 59.6806 49.7307 69.6306 49.7307 79.5796 49.7307 89.5296 49.7307 99.4706 49.7307 109.4196 39.7897 109.4196 39.7897 99.4706 39.7897 89.5296 39.7897 79.5796 29.8397 79.5796 29.8397 89.5296 29.8397 99.4706 19.8897 99.4706 19.8897 109.4196 19.8897 119.3696 9.9507 119.3696 -0.0003 119.3696 -0.0003 129.3096 9.9507 129.3096 19.8897 129.3096 29.8397 129.3096 39.7897 129.3096 49.7307 129.3096 59.6787 129.3096 69.6297 129.3096 79.5797 129.3096 89.5207 129.3096 99.4707 129.3096 109.4197 129.3096 119.3597 129.3096 129.3107 129.3096 139.2597 129.3096 149.2007 129.3096 159.1497 129.3096 169.0997 129.3096 179.0397 129.3096 188.9897 129.3096 198.9407 129.3096 208.8797 129.3096 218.8297 129.3096 228.7797 129.3096 238.7307 129.3096 248.6697 129.3096 258.6197 129.3096 268.5697 129.3096 278.5097 129.3096 278.5097 119.3696 268.5697 119.3696 258.6197 119.3696 258.6197 109.4196 258.6197 99.4706 248.6697 99.4706 248.6697 109.4196 238.7307 109.4196 238.7307 99.4706 238.7307 89.5296 238.7307 79.5796 238.7307 69.6306 238.7307 59.6806 228.7797 59.6806 228.7797 69.6306 228.7797 79.5796 228.7797 89.5296 228.7797 99.4706 228.7797 109.4196 218.8297 109.4196 218.8297 99.4706 218.8297 89.5296 208.8797 89.5296 208.8797 79.5796 198.9407 79.5796 198.9407 89.5296 198.9407 99.4706 198.9407 109.4196 188.9897 109.4196 188.9897 99.4706 188.9897 89.5296 188.9897 79.5796 188.9897 69.6306 188.9897 59.6806 179.0397 59.6806 179.0397 69.6306 169.0997 69.6306 169.0997 79.5796 169.0997 89.5296 169.0997 99.4706 169.0997 109.4196 159.1497 109.4196 159.1497 99.4706 159.1497 89.5296 159.1497 79.5796 159.1497 69.6306 149.2007 69.6306 149.2007 59.6806 149.2007 49.7406 149.2007 39.7906"></polygon>
            <polygon id="Fill-2" points="238.7302 29.8395 248.6692 29.8395 258.6202 29.8395 258.6202 19.9005 248.6692 19.9005 238.7302 19.9005 228.7802 19.9005 218.8302 19.9005 218.8302 29.8395 228.7802 29.8395"></polygon>
            <polygon id="Fill-3" points="218.83 59.68 228.78 59.68 228.78 49.74 218.83 49.74"></polygon>
            <polygon id="Fill-4" points="208.88 49.74 218.83 49.74 218.83 39.791 208.88 39.791"></polygon>
            <polygon id="Fill-5" points="198.941 39.791 208.88 39.791 208.88 29.84 198.941 29.84"></polygon>
            <polygon id="Fill-6" points="188.99 29.839 198.94 29.839 198.94 19.9 188.99 19.9"></polygon>
            <polygon id="Fill-7" points="179.04 19.9 188.99 19.9 188.99 9.95 179.04 9.95"></polygon>
            <polygon id="Fill-8" points="109.4193 -0.0002 109.4193 9.9498 119.3603 9.9498 129.3103 9.9498 139.2593 9.9498 149.2003 9.9498 159.1493 9.9498 169.1003 9.9498 179.0393 9.9498 179.0393 -0.0002"></polygon>
            <polygon id="Fill-9" points="99.471 19.9 109.42 19.9 109.42 9.95 99.471 9.95"></polygon>
            <polygon id="Fill-10" points="89.52 29.839 99.47 29.839 99.47 19.9 89.52 19.9"></polygon>
            <polygon id="Fill-11" points="79.58 39.791 89.52 39.791 89.52 29.84 79.58 29.84"></polygon>
            <polygon id="Fill-12" points="69.63 49.74 79.58 49.74 79.58 39.791 69.63 39.791"></polygon>
            <polygon id="Fill-13" points="59.68 59.68 69.63 59.68 69.63 49.74 59.68 49.74"></polygon>
            <polygon id="Fill-14" points="49.7304 -0.0002 49.7304 9.9498 59.6794 9.9498 69.6294 9.9498 79.5794 9.9498 79.5794 -0.0002"></polygon>
            <polygon id="Fill-15" points="39.7898 29.8395 49.7298 29.8395 59.6798 29.8395 59.6798 19.9005 49.7298 19.9005 39.7898 19.9005 29.8398 19.9005 19.8908 19.9005 19.8908 29.8395 29.8398 29.8395"></polygon>
        </g>
    </g>
</svg>