<svg id="sunset" xmlns="http://www.w3.org/2000/svg" width="49" height="29.699" viewBox="0 0 49 29.699">
  <path id="Path_16" data-name="Path 16" d="M28.747,81.317V79.57H27v3.495h1.747Z" transform="translate(-22.258 -65.595)" fill="#fff"/>
  <path id="Path_17" data-name="Path 17" d="M245.84,79.57v3.495h1.746V79.57Z" transform="translate(-202.664 -65.595)" fill="#fff"/>
  <path id="Path_18" data-name="Path 18" d="M39.681,86.558V79.57H37.934v6.988H36.188V81.317H34.441v5.241H15.223V81.317H13.478v5.241H11.73V79.57H9.983v6.988H0v1.747H49V86.558H39.681Z" transform="translate(0 -65.595)" fill="#fff"/>
  <rect id="Rectangle_97" data-name="Rectangle 97" width="1.747" height="1.747" transform="translate(39.681 8.734)" fill="#fff"/>
  <rect id="Rectangle_98" data-name="Rectangle 98" width="1.747" height="1.746" transform="translate(37.934 6.988)" fill="#fff"/>
  <path id="Path_19" data-name="Path 19" d="M83.045,139.26H56.84v1.746h29.7V139.26H83.045Z" transform="translate(-46.857 -114.802)" fill="#fff"/>
  <rect id="Rectangle_99" data-name="Rectangle 99" width="1.746" height="1.746" transform="translate(36.188 12.229)" fill="#fff"/>
  <rect id="Rectangle_100" data-name="Rectangle 100" width="1.746" height="1.747" transform="translate(36.188 5.241)" fill="#fff"/>
  <rect id="Rectangle_101" data-name="Rectangle 101" width="1.747" height="1.747" transform="translate(34.441 10.481)" fill="#fff"/>
  <rect id="Rectangle_102" data-name="Rectangle 102" width="1.747" height="1.747" transform="translate(34.441 3.493)" fill="#fff"/>
  <rect id="Rectangle_103" data-name="Rectangle 103" width="1.747" height="1.747" transform="translate(32.693 13.975)" fill="#fff"/>
  <rect id="Rectangle_104" data-name="Rectangle 104" width="1.747" height="1.747" transform="translate(32.693 8.734)" fill="#fff"/>
  <rect id="Rectangle_105" data-name="Rectangle 105" width="1.746" height="1.746" transform="translate(30.947 12.229)" fill="#fff"/>
  <rect id="Rectangle_106" data-name="Rectangle 106" width="1.746" height="1.746" transform="translate(30.947 6.988)" fill="#fff"/>
  <path id="Path_20" data-name="Path 20" d="M108.859,159.15H96.63V160.9h15.722V159.15h-3.493Z" transform="translate(-79.659 -131.199)" fill="#fff"/>
  <rect id="Rectangle_107" data-name="Rectangle 107" width="1.747" height="1.747" transform="translate(29.2 10.481)" fill="#fff"/>
  <path id="Path_21" data-name="Path 21" d="M129.965,1.747h1.746V0H126.47V1.747h3.495Z" transform="translate(-104.258)" fill="#fff"/>
  <path id="Path_22" data-name="Path 22" d="M120.023,51.477h5.241V49.73H116.53v1.747h3.493Z" transform="translate(-96.064 -40.996)" fill="#fff"/>
  <path id="Path_23" data-name="Path 23" d="M110.073,31.587h8.736V29.84H106.58v1.747h3.493Z" transform="translate(-87.862 -24.599)" fill="#fff"/>
  <rect id="Rectangle_108" data-name="Rectangle 108" width="1.747" height="1.747" transform="translate(18.718 10.481)" fill="#fff"/>
  <rect id="Rectangle_109" data-name="Rectangle 109" width="1.747" height="1.746" transform="translate(16.971 12.229)" fill="#fff"/>
  <rect id="Rectangle_110" data-name="Rectangle 110" width="1.747" height="1.746" transform="translate(16.971 6.988)" fill="#fff"/>
  <rect id="Rectangle_111" data-name="Rectangle 111" width="1.747" height="1.747" transform="translate(15.223 13.975)" fill="#fff"/>
  <rect id="Rectangle_112" data-name="Rectangle 112" width="1.747" height="1.747" transform="translate(15.223 8.734)" fill="#fff"/>
  <rect id="Rectangle_113" data-name="Rectangle 113" width="1.746" height="1.747" transform="translate(13.478 10.481)" fill="#fff"/>
  <rect id="Rectangle_114" data-name="Rectangle 114" width="1.746" height="1.747" transform="translate(13.478 3.493)" fill="#fff"/>
  <rect id="Rectangle_115" data-name="Rectangle 115" width="1.747" height="1.746" transform="translate(11.73 12.229)" fill="#fff"/>
  <rect id="Rectangle_116" data-name="Rectangle 116" width="1.747" height="1.747" transform="translate(11.73 5.241)" fill="#fff"/>
  <rect id="Rectangle_117" data-name="Rectangle 117" width="1.747" height="1.746" transform="translate(9.983 6.988)" fill="#fff"/>
  <rect id="Rectangle_118" data-name="Rectangle 118" width="1.746" height="1.747" transform="translate(8.237 8.734)" fill="#fff"/>
</svg>
